# Blender v2.80 (sub 75) OBJ File: 'pipes.blend'
# www.blender.org
mtllib island1.mtl
o island
v 1.120957 -0.499380 1.799321
v 0.791825 -0.561181 2.048077
v 1.114562 -0.499113 1.793524
v -2.145924 -0.441540 -1.005911
v -2.149202 -0.442951 -1.006316
v -2.144623 -0.444073 -1.005751
v 1.116317 -0.496850 1.798289
v 1.606550 -0.587015 1.307312
v 1.630918 -0.492856 1.515322
v 1.340041 -0.342206 2.036327
v 0.922658 -0.773934 0.277118
v 0.634686 -0.484479 0.943144
v 0.139894 -0.815729 0.655958
v 0.172348 0.167672 0.678721
v -0.601878 -0.027993 1.646401
v 0.291022 0.036881 1.798761
v -0.091541 -0.749207 1.164356
v 0.162598 -0.628286 1.595198
v 0.102931 -0.088781 -2.965606
v 0.830593 -0.054778 -2.370999
v 0.954127 -0.304528 -2.521886
v -0.737309 -0.640587 1.451839
v -0.763184 -0.670603 0.726863
v -0.598748 0.407547 -0.140416
v 0.185326 0.236169 0.066965
v 0.014908 0.764560 -0.150663
v -0.501660 -0.657559 -2.672803
v -1.112055 -0.556525 -2.307047
v -0.936888 -0.354882 -3.012136
v -0.419663 0.192255 -2.070499
v 0.208439 0.178231 -2.120517
v -0.420817 0.143497 -2.921955
v -1.012116 0.109843 -2.706754
v -1.151012 -0.017754 -2.117131
v -1.169218 0.271806 -1.013627
v -1.728848 0.147678 -1.368846
v -2.452710 0.114414 -0.713577
v -0.292211 -0.944472 0.207656
v -0.919889 -0.579010 -0.095238
v -0.848609 -0.762044 -0.610687
v -0.007090 -0.989837 -0.050105
v -0.980845 -0.697180 -1.272714
v 0.180345 -0.794355 -0.882901
v 0.957751 -0.829881 -1.052687
v 1.562713 -0.745075 -0.851204
v 1.761749 -0.142262 1.552084
v 1.977939 -0.529610 0.238983
v 2.088319 -0.357325 0.000701
v 2.030988 -0.097125 0.671205
v -1.781533 -0.442496 0.810649
v -1.153729 -0.586924 1.309915
v -1.228391 -0.255479 1.431941
v 0.732618 -0.353556 2.260683
v 2.203503 -0.038635 -0.674500
v 1.667092 0.057238 -1.309769
v 2.054190 0.218676 -0.635571
v 0.969469 0.589947 -0.314332
v 1.449532 0.241690 -0.529471
v 1.218466 0.313036 -1.012195
v -0.178695 -0.488243 2.393157
v -0.225251 -0.187958 2.447112
v 1.292618 0.063941 1.895334
v 1.271658 -0.509212 0.920307
v -0.213034 0.807353 -0.354788
v 0.716678 0.428755 -0.592976
v -1.987550 0.118111 -0.411821
v -1.481490 -0.503685 -0.703947
v -2.704553 -0.171586 -1.051290
v -1.857743 -0.537137 -1.359729
v -1.606459 0.006807 0.792828
v -2.349383 -0.066723 -0.234582
v -0.741859 -0.666077 -2.050403
v 0.459175 -0.808406 -2.024283
v 0.968301 -0.532694 -2.521175
v 0.112198 -0.503083 -2.929797
v 1.187818 -0.501576 -2.218038
v 1.147114 -0.745324 -1.445199
v 1.547450 -0.703789 -1.703390
v -0.682162 0.082995 0.639790
v -1.714457 0.078354 0.459731
v -1.948088 -0.214842 -1.894799
v -1.436204 -0.384336 -2.079331
v -1.256801 -0.229931 -2.260621
v 1.714052 -0.000973 1.089465
v 0.806685 0.177549 0.323005
v 0.662494 0.514786 -0.088399
v 1.179659 0.419162 0.100611
v -2.072365 -0.351956 -1.717186
v -1.323897 -0.550165 -1.904981
v -0.786511 0.667772 -0.615531
v -0.800427 0.382314 -1.014806
v -1.356969 0.091554 -0.277842
v 0.429684 0.349505 -0.831908
v 0.233297 0.598595 -0.740545
v 0.412591 0.526714 -0.161576
v 1.837337 -0.239760 1.085058
v 1.201950 -0.564504 0.611938
v 1.707232 -0.616956 0.521977
v -0.373755 0.164114 -1.422623
v -0.828685 0.159022 -1.581362
v 0.230906 -0.964223 0.231489
v -0.429964 -0.784311 0.575058
v -1.229806 -0.333112 -2.707383
v -1.547449 -0.696082 0.574399
v -2.124254 -0.261031 0.052739
v -2.563262 -0.236790 -0.610705
v -0.601927 -0.232658 -3.068819
v 0.036192 -0.657040 -2.650927
v -1.541126 -0.447720 -0.336301
v -1.906638 -0.554727 0.387270
v 1.531865 0.212046 0.294407
v 2.243716 0.198222 0.253589
v -2.289287 -0.030705 -1.433467
v -2.714851 -0.018219 -0.871877
v 0.606359 0.026614 2.157368
v 0.884542 -0.091822 2.237040
v 1.854974 -0.121711 -1.356156
v -0.067460 0.049613 -1.456442
v -2.048287 0.003223 0.600707
v 2.093423 -0.694683 -1.000775
v 1.578308 -0.400619 -1.935508
v 2.162553 -0.510913 -1.037220
v 1.502438 0.361769 -0.153352
v -0.067880 -0.576821 2.195149
v 1.928084 -0.787399 -1.035054
v -1.324790 0.039740 -1.800877
v -0.049786 0.059209 2.221036
v 1.830125 -0.764360 -0.096796
v 2.079486 0.248572 -0.121999
v -0.642696 -0.306697 1.929238
v -1.380220 0.036707 0.071257
v 0.974185 0.072369 -1.478260
v 0.369322 0.064477 -1.134147
v -0.851332 0.052197 -2.951117
v 1.318986 -0.693941 -0.064390
v -0.542981 0.100910 0.235474
v 0.840798 0.171746 -0.904386
v 1.215378 -0.249863 -2.146211
v -2.060032 -0.456459 0.620113
v 1.337000 -0.107983 -1.785284
v 2.369483 -0.032336 0.213782
v 2.112391 -0.301467 -1.011537
v 2.238721 -0.133619 0.373902
vn 0.0159 -0.9920 0.1247
vn 0.3137 -0.8543 0.4144
vn 0.0975 -0.9939 0.0517
vn -0.1226 -0.0006 0.9924
vn -0.1064 -0.9914 0.0758
vn 0.3869 -0.9070 0.1664
vn 0.6428 -0.6657 0.3789
vn 0.5394 -0.3667 0.7580
vn 0.2756 -0.9210 0.2753
vn 0.1889 -0.9620 0.1968
vn 0.1417 -0.9374 0.3180
vn -0.0518 0.9979 0.0384
vn -0.3234 0.8894 0.3230
vn -0.0328 0.9983 0.0472
vn 0.0826 -0.9867 0.1401
vn 0.1840 -0.9808 0.0645
vn 0.3361 0.4093 -0.8482
vn 0.4347 0.8009 -0.4118
vn 0.6329 0.3023 -0.7127
vn -0.2391 -0.9208 0.3080
vn -0.1383 -0.9896 0.0380
vn -0.3150 0.6904 0.6512
vn -0.0626 0.7428 0.6666
vn 0.1303 0.8379 0.5300
vn -0.1143 -0.9210 -0.3723
vn -0.4996 -0.8293 -0.2503
vn -0.4328 -0.3800 -0.8175
vn -0.0421 0.9990 0.0141
vn 0.1289 0.9904 -0.0508
vn 0.0490 0.8090 -0.5857
vn -0.5643 0.7866 -0.2504
vn -0.4941 0.8255 -0.2727
vn -0.1767 0.9829 -0.0504
vn -0.1769 0.9442 -0.2777
vn -0.3759 0.9181 0.1259
vn -0.2759 -0.9463 0.1684
vn -0.3296 -0.9430 0.0453
vn -0.3389 -0.9369 0.0858
vn -0.0378 -0.9981 -0.0473
vn -0.1395 -0.9858 -0.0935
vn -0.0636 -0.9868 -0.1489
vn 0.0967 -0.9924 -0.0760
vn 0.0079 -0.9999 -0.0098
vn 0.8810 0.2655 0.3915
vn 0.7874 -0.5725 0.2286
vn 0.8792 -0.4644 0.1062
vn 0.8731 -0.0934 0.4784
vn -0.6154 -0.3963 0.6813
vn -0.4091 -0.7821 0.4700
vn -0.6569 0.1894 0.7298
vn 0.2283 -0.3143 0.9214
vn 0.9489 0.1979 -0.2455
vn 0.3839 0.7944 -0.4707
vn 0.5507 0.7965 -0.2493
vn 0.0897 0.9957 0.0211
vn 0.2433 0.9587 -0.1473
vn 0.0562 0.9395 -0.3377
vn -0.2751 -0.6266 0.7291
vn -0.3694 0.2784 0.8866
vn 0.3872 0.7943 0.4681
vn -0.2562 -0.9548 0.1508
vn -0.1366 0.9877 0.0752
vn -0.1228 0.9195 -0.3733
vn -0.1493 0.9705 0.1893
vn -0.3240 -0.9267 0.1902
vn -0.8927 -0.3156 -0.3216
vn -0.3218 -0.9458 -0.0421
vn -0.3541 0.7813 0.5140
vn -0.7713 0.4407 0.4591
vn -0.1367 -0.9797 -0.1466
vn 0.0832 -0.9817 -0.1715
vn 0.5652 -0.5297 -0.6323
vn 0.1647 -0.5684 -0.8061
vn 0.6161 -0.5238 -0.5882
vn 0.1366 -0.9782 -0.1562
vn 0.3406 -0.8455 -0.4111
vn -0.0759 0.9951 0.0638
vn -0.0840 0.9920 0.0937
vn -0.5400 0.1881 -0.8204
vn -0.5589 -0.3553 -0.7492
vn -0.9200 0.2404 -0.3094
vn 0.5145 0.8247 0.2345
vn -0.0437 0.9254 0.3764
vn -0.0966 0.9387 0.3308
vn 0.1231 0.9046 0.4081
vn -0.6324 -0.5643 -0.5306
vn -0.3200 -0.9140 -0.2494
vn -0.4420 0.8922 -0.0925
vn -0.2799 0.8763 -0.3920
vn -0.1823 0.9567 0.2269
vn 0.3443 0.7563 -0.5562
vn 0.4078 0.8136 -0.4143
vn 0.2360 0.9063 0.3506
vn 0.9534 -0.0522 0.2972
vn 0.0127 -0.9720 0.2347
vn 0.1794 -0.9732 0.1435
vn 0.1659 0.9406 -0.2960
vn -0.0839 0.9784 -0.1887
vn 0.1107 -0.9743 0.1959
vn -0.2689 -0.9490 0.1643
vn -0.8829 -0.2383 -0.4044
vn -0.2520 -0.9649 0.0737
vn -0.4767 -0.8686 -0.1347
vn -0.7056 -0.6431 0.2976
vn -0.0045 -0.1277 -0.9918
vn 0.0797 -0.9055 -0.4166
vn -0.2464 -0.9685 -0.0364
vn -0.4656 -0.8809 -0.0840
vn 0.0820 0.9444 0.3184
vn 0.6141 0.7629 0.2023
vn -0.5388 0.6320 -0.5569
vn -0.8943 0.4461 0.0348
vn 0.0684 0.8203 0.5677
vn 0.2024 0.3757 0.9043
vn 0.6985 0.5100 -0.5019
vn 0.1437 0.9855 -0.0897
vn -0.6182 0.6081 0.4980
vn 0.7645 -0.6242 -0.1605
vn 0.7220 0.0326 -0.6911
vn 0.9617 -0.0891 -0.2592
vn 0.2519 0.9674 0.0266
vn -0.0879 -0.9388 0.3329
vn 0.2597 -0.9560 -0.1365
vn -0.2144 0.9205 -0.3266
vn -0.1304 0.9067 0.4011
vn 0.3096 -0.9388 0.1511
vn 0.4651 0.8848 -0.0285
vn -0.7374 -0.0545 0.6733
vn 0.0016 0.9991 0.0420
vn 0.0808 0.9622 -0.2602
vn 0.1139 0.9219 -0.3702
vn -0.3632 0.5901 -0.7210
vn 0.1201 -0.9813 0.1502
vn -0.1245 0.9504 0.2849
vn -0.2156 0.9059 -0.3646
vn 0.6449 0.4631 -0.6079
vn -0.7060 -0.5398 0.4584
vn 0.3445 0.8539 -0.3900
vn 0.9829 -0.1549 0.0994
vn 0.9281 0.2060 -0.3100
vn 0.7159 -0.5721 0.4002
usemtl Default_OBJ
s 1
f 1//1 2//2 3//3
f 4//4 5//4 6//4
f 7//5 3//3 8//6
f 7//5 8//6 1//1
f 1//1 9//7 10//8
f 11//9 12//10 13//11
f 14//12 15//13 16//14
f 17//15 12//10 18//16
f 19//17 20//18 21//19
f 17//15 22//20 23//21
f 24//22 25//23 26//24
f 27//25 28//26 29//27
f 30//28 31//29 32//30
f 30//28 33//31 34//32
f 35//33 36//34 37//35
f 38//36 39//37 40//38
f 41//39 42//40 43//41
f 41//39 44//42 45//43
f 9//7 46//44 10//8
f 47//45 48//46 49//47
f 50//48 51//49 52//50
f 1//1 53//51 2//2
f 54//52 55//53 56//54
f 57//55 58//56 59//57
f 60//58 53//51 61//59
f 14//12 16//14 62//60
f 3//3 63//61 8//6
f 18//16 12//10 3//3
f 64//62 24//22 26//24
f 59//57 65//63 57//55
f 35//33 37//35 66//64
f 67//65 68//66 69//67
f 70//68 50//48 52//50
f 71//69 66//64 37//35
f 72//70 73//71 43//41
f 74//72 73//71 75//73
f 76//74 77//75 73//71
f 45//43 77//75 78//76
f 79//77 15//13 14//12
f 80//78 66//64 71//69
f 81//79 34//32 82//80
f 34//32 33//31 83//81
f 84//82 85//83 62//60
f 86//84 85//83 87//85
f 43//41 42//40 72//70
f 88//86 89//87 69//67
f 90//88 91//89 92//90
f 93//91 94//92 95//93
f 96//94 8//6 47//45
f 97//95 98//96 8//6
f 99//97 91//89 90//88
f 100//98 36//34 35//33
f 13//11 101//99 11//9
f 13//11 102//100 38//36
f 32//30 20//18 19//17
f 83//81 33//31 103//101
f 51//49 50//48 104//102
f 105//103 106//104 67//65
f 32//30 19//17 107//105
f 107//105 75//73 108//106
f 23//21 51//49 104//102
f 109//107 104//102 110//108
f 96//94 47//45 49//47
f 84//82 111//109 85//83
f 23//21 104//102 39//37
f 38//36 102//100 39//37
f 56//54 59//57 58//56
f 84//82 112//110 111//109
f 113//111 37//35 36//34
f 106//104 71//69 114//112
f 56//54 55//53 59//57
f 31//29 20//18 32//30
f 62//60 115//113 116//114
f 62//60 10//8 46//44
f 54//52 117//115 55//53
f 76//74 78//76 77//75
f 93//91 99//97 94//92
f 31//29 30//28 118//116
f 80//78 71//69 119//117
f 110//108 105//103 109//107
f 120//118 48//46 47//45
f 121//119 122//120 120//118
f 86//84 57//55 65//63
f 86//84 123//121 57//55
f 53//51 124//122 2//2
f 17//15 18//16 124//122
f 45//43 78//76 125//123
f 121//119 120//118 78//76
f 113//111 36//34 126//124
f 100//98 126//124 36//34
f 15//13 61//59 127//125
f 115//113 61//59 53//51
f 68//66 88//86 69//67
f 113//111 68//66 114//112
f 120//118 47//45 128//126
f 97//95 128//126 98//96
f 19//17 74//72 75//73
f 107//105 19//17 75//73
f 26//24 94//92 64//62
f 99//97 64//62 94//92
f 54//52 56//54 129//127
f 123//121 129//127 56//54
f 17//15 124//122 22//20
f 130//128 22//20 124//122
f 28//26 83//81 103//101
f 88//86 82//80 89//87
f 35//33 66//64 92//90
f 66//64 80//78 131//129
f 59//57 55//53 132//130
f 133//131 59//57 132//130
f 69//67 89//87 42//40
f 69//67 40//38 67//65
f 116//114 10//8 62//60
f 1//1 10//8 53//51
f 79//77 131//129 80//78
f 92//90 24//22 90//88
f 30//28 32//30 33//31
f 134//132 32//30 107//105
f 70//68 52//50 15//13
f 79//77 70//68 15//13
f 132//130 20//18 31//29
f 133//131 132//130 31//29
f 45//43 125//123 128//126
f 97//95 135//133 128//126
f 136//134 25//23 24//22
f 136//134 24//22 92//90
f 108//106 75//73 73//71
f 28//26 27//25 73//71
f 39//37 67//65 40//38
f 39//37 104//102 109//107
f 2//2 124//122 18//16
f 2//2 18//16 3//3
f 133//131 99//97 93//91
f 133//131 137//135 59//57
f 96//94 49//47 84//82
f 84//82 62//60 46//44
f 15//13 130//128 61//59
f 61//59 130//128 60//58
f 76//74 138//136 121//119
f 76//74 121//119 78//76
f 81//79 82//80 88//86
f 113//111 88//86 68//66
f 46//44 96//94 84//82
f 9//7 96//94 46//44
f 45//43 11//9 101//99
f 128//126 135//133 45//43
f 106//104 105//103 71//69
f 139//137 71//69 105//103
f 26//24 25//23 95//93
f 95//93 94//92 26//24
f 138//136 21//19 20//18
f 132//130 140//138 20//18
f 139//137 119//117 71//69
f 50//48 70//68 119//117
f 49//47 112//110 84//82
f 54//52 129//127 141//139
f 99//97 90//88 64//62
f 24//22 64//62 90//88
f 43//41 44//42 41//39
f 73//71 44//42 43//41
f 128//126 47//45 98//96
f 98//96 47//45 8//6
f 50//48 119//117 139//137
f 50//48 110//108 104//102
f 56//54 58//56 123//121
f 57//55 123//121 58//56
f 118//116 30//28 99//97
f 100//98 30//28 126//124
f 116//114 53//51 10//8
f 116//114 115//113 53//51
f 21//19 138//136 76//74
f 74//72 76//74 73//71
f 86//84 87//85 123//121
f 123//121 111//109 129//127
f 53//51 60//58 124//122
f 60//58 130//128 124//122
f 100//98 91//89 99//97
f 30//28 100//98 99//97
f 85//83 136//134 14//12
f 62//60 85//83 14//12
f 120//118 122//120 48//46
f 122//120 117//115 142//140
f 68//66 67//65 106//104
f 68//66 106//104 114//112
f 29//27 28//26 103//101
f 103//101 134//132 29//27
f 86//84 25//23 85//83
f 85//83 25//23 136//134
f 142//140 143//141 48//46
f 142//140 48//46 122//120
f 100//98 35//33 91//89
f 92//90 91//89 35//33
f 38//36 42//40 41//39
f 13//11 38//36 101//99
f 52//50 51//49 130//128
f 130//128 15//13 52//50
f 85//83 111//109 87//85
f 87//85 111//109 123//121
f 72//70 28//26 73//71
f 28//26 89//87 82//80
f 11//9 97//95 12//10
f 3//3 12//10 63//61
f 140//138 132//130 55//53
f 117//115 140//138 55//53
f 105//103 110//108 139//137
f 50//48 139//137 110//108
f 143//141 49//47 48//46
f 49//47 141//139 112//110
f 73//71 77//75 44//42
f 44//42 77//75 45//43
f 31//29 118//116 133//131
f 118//116 99//97 133//131
f 136//134 131//129 79//77
f 136//134 79//77 14//12
f 134//132 107//105 29//27
f 107//105 108//106 29//27
f 81//79 88//86 113//111
f 81//79 113//111 126//124
f 97//95 8//6 63//61
f 12//10 97//95 63//61
f 142//140 54//52 143//141
f 54//52 142//140 117//115
f 38//36 40//38 42//40
f 69//67 42//40 40//38
f 130//128 51//49 22//20
f 22//20 51//49 23//21
f 108//106 27//25 29//27
f 108//106 73//71 27//25
f 133//131 93//91 137//135
f 137//135 65//63 59//57
f 122//120 121//119 117//115
f 117//115 121//119 138//136
f 34//32 126//124 30//28
f 34//32 81//79 126//124
f 135//133 97//95 11//9
f 135//133 11//9 45//43
f 93//91 65//63 137//135
f 93//91 86//84 65//63
f 79//77 80//78 70//68
f 70//68 80//78 119//117
f 39//37 109//107 67//65
f 109//107 105//103 67//65
f 101//99 38//36 41//39
f 41//39 45//43 101//99
f 54//52 141//139 143//141
f 49//47 143//141 141//139
f 20//18 140//138 138//136
f 117//115 138//136 140//138
f 1//1 8//6 9//7
f 9//7 8//6 96//94
f 127//125 16//14 15//13
f 127//125 61//59 115//113
f 82//80 34//32 83//81
f 28//26 82//80 83//81
f 78//76 120//118 125//123
f 120//118 128//126 125//123
f 21//19 76//74 74//72
f 19//17 21//19 74//72
f 13//11 17//15 102//100
f 17//15 13//11 12//10
f 37//35 113//111 114//112
f 71//69 37//35 114//112
f 112//110 141//139 129//127
f 112//110 129//127 111//109
f 89//87 28//26 72//70
f 72//70 42//40 89//87
f 17//15 23//21 102//100
f 23//21 39//37 102//100
f 134//132 103//101 33//31
f 32//30 134//132 33//31
f 86//84 95//93 25//23
f 93//91 95//93 86//84
f 136//134 92//90 131//129
f 66//64 131//129 92//90
f 115//113 16//14 127//125
f 115//113 62//60 16//14
