# Blender v2.80 (sub 75) OBJ File: 'plams.blend'
# www.blender.org
mtllib smoke2.mtl
o smoke1
v -0.159970 0.478191 0.864422
v -0.591754 0.594262 0.702963
v -0.560847 0.287332 0.873931
v -0.281712 0.251993 0.929753
v -0.043121 0.635015 0.716020
v -0.279022 0.772527 0.635970
v -0.114066 -0.612371 0.903261
v -0.160808 -0.517990 0.950689
v -0.306696 -0.585769 0.898228
v -0.207446 -0.687648 0.853854
v 0.025100 -0.586116 0.837126
v -0.004701 -0.433299 0.909119
v -0.087186 -0.738410 0.765881
v -0.406646 -0.623972 0.817208
v -0.448808 -0.396876 0.881428
v -0.550565 -0.517784 0.719156
v -0.542504 -0.672015 0.592360
v -0.353472 -0.733922 0.746851
v 0.255311 0.283054 0.715524
v -0.003130 0.287017 0.794556
v 0.082608 -0.155523 0.774313
v 0.326555 -0.092591 0.717881
v 0.559425 -0.043434 0.671917
v 0.435149 0.325372 0.674515
v -0.543440 0.736304 0.450331
v -0.458074 0.819341 0.438050
v -0.551397 0.847397 0.138090
v -0.811337 0.686264 0.237111
v -0.852418 0.552509 0.529870
v 0.347603 -0.480177 0.472729
v 0.557351 -0.749999 0.318313
v 0.674333 -0.690394 0.238835
v 0.597180 -0.372389 0.415085
v 0.191451 -0.439638 0.637489
v 0.419299 0.823327 0.583957
v 0.520067 0.942136 0.464125
v 0.390236 1.114804 0.443356
v 0.270302 0.950232 0.614298
v 0.406625 0.624791 0.612224
v 0.562467 0.641799 0.483523
v 0.228528 0.602953 0.673072
v 0.217952 -0.909586 0.240665
v 0.387938 -0.855655 0.305287
v 0.209634 -0.691880 0.402302
v 0.079995 -0.819765 0.303082
v -0.012330 -0.889505 0.161730
v 0.238770 -0.974826 0.075528
v 0.453411 -0.972529 0.075587
v -0.110039 1.224345 0.337057
v -0.255876 1.109305 0.403403
v -0.088730 1.065904 0.537095
v 0.085591 1.247373 0.367393
v -0.080309 1.266554 0.169844
v -0.347454 1.112931 0.172525
v 0.126729 1.293016 0.165446
v -0.303405 -0.756855 0.207430
v -0.246903 -0.773091 0.323695
v -0.439530 -0.761132 0.477836
v -0.553765 -0.680029 0.193360
v -0.169709 -0.758589 -0.048917
v -0.441698 -0.695050 -0.109662
v -0.101220 1.231859 0.010568
v 0.063683 1.249558 -0.032340
v -0.286396 1.106299 -0.084509
v -0.102726 1.101078 -0.255542
v 0.729603 -0.158363 0.049103
v 0.724448 -0.298469 0.174460
v 0.774899 -0.487138 0.010700
v 0.748104 -0.273383 -0.111525
v -0.754341 0.684700 -0.105362
v -0.522206 0.875968 -0.203040
v -0.417606 0.847028 -0.421862
v -0.899336 0.569550 -0.308821
v -1.101977 0.444241 0.061173
v 0.580612 -0.328247 -0.475822
v 0.613370 -0.043839 -0.430929
v 0.687539 0.004251 -0.326943
v 0.717664 -0.293013 -0.229305
v 0.755142 -0.566096 -0.129614
v 0.661350 -0.553219 -0.326313
v 0.421923 -0.231513 -0.529423
v 0.458812 -0.084823 -0.497057
v -0.968556 -0.293733 -0.500183
v -1.003243 -0.404003 -0.397557
v -1.067733 -0.191893 -0.258533
v -0.978223 -0.108132 -0.457732
v -0.983607 0.021505 -0.402376
v -1.052887 0.130133 -0.267867
v -0.719750 0.165290 -0.631679
v -0.836264 -0.145464 -0.592903
v -0.896878 0.319516 -0.469241
v 0.164060 1.034678 -0.308890
v 0.037176 0.875493 -0.594194
v 0.023492 0.731394 -0.776118
v -0.421603 0.654308 -0.660366
v -0.808880 -0.578257 -0.409651
v -0.932668 -0.540801 -0.303361
v -0.834834 -0.475291 -0.521308
v -0.603173 -0.628273 -0.386611
v -0.726022 -0.665033 -0.177315
v -0.588598 -0.492675 -0.554366
v 0.562540 -0.699898 -0.489831
v 0.456223 -0.770209 -0.567585
v 0.394866 -0.672009 -0.703737
v 0.534590 -0.586905 -0.635474
v 0.224103 -0.794379 -0.631774
v 0.241644 -0.851266 -0.515174
v 0.110015 -0.823871 -0.475490
v 0.122854 -0.740006 -0.652680
v 0.213777 -0.653828 -0.733143
v 0.296777 -0.740034 -0.686175
v 0.352133 -0.824271 -0.556615
v 0.248400 0.113635 -0.601873
v 0.149675 -0.072952 -0.526076
v -0.064524 0.124784 -0.692135
v 0.132152 0.237447 -0.721200
v 0.105186 -0.258469 -0.628413
v 0.145843 -0.171276 -0.533917
v 0.302549 -0.335820 -0.664887
v -0.606647 -0.150491 -0.659833
v -0.631662 -0.349364 -0.634513
v -0.857590 -0.337990 -0.579929
v -0.255565 -0.323032 -0.638034
v -0.410453 -0.009338 -0.704702
v -0.122315 -0.047436 -0.693913
v -0.053972 -0.237860 -0.663092
v -0.260131 -0.447268 -0.526531
v 0.173261 0.592443 -0.837860
v 0.248318 0.697282 -0.781224
v 0.373226 0.581908 -0.747804
v 0.269619 0.469820 -0.822763
v 0.021891 0.567771 -0.838865
v 0.066737 0.428472 -0.828856
v -0.231251 0.294484 -0.733433
v -0.368909 0.469309 -0.740540
v 0.332514 0.302720 -0.736727
v 0.444113 0.403539 -0.663873
v 0.532328 0.179615 -0.522087
v 0.407982 0.097905 -0.572530
v 0.499942 0.514608 -0.531076
v 0.587256 0.262365 -0.413345
v 0.607889 0.644854 -0.236838
v 0.647140 0.332018 -0.197104
v 0.733144 0.030290 -0.159751
v 0.703855 0.340510 0.071330
v 0.727829 0.031512 0.061459
v 0.680361 0.330968 0.321249
v 0.725689 0.014385 0.281060
v 0.579842 0.323767 0.520672
v 0.692622 -0.013599 0.495968
v 0.681386 -0.344791 0.312759
v 0.746376 -0.617135 0.136530
v 0.690023 -0.807797 0.020853
v 0.737217 -0.719063 -0.029873
v 0.542448 -0.805654 -0.259679
v 0.611840 -0.694274 -0.277583
v 0.610434 -0.893605 0.061982
v 0.453201 -0.884984 -0.245653
v 0.341127 -0.925475 -0.221806
v 0.175914 -0.905858 -0.181589
v -0.071059 -0.684554 -0.369855
v -0.284175 -0.612363 -0.306455
v -0.040782 -0.608795 -0.604670
v 0.031672 -0.510590 -0.704427
v 0.156723 -0.423198 -0.729107
v 0.321491 -0.564844 -0.751882
v 0.462124 -0.446363 -0.681241
v 0.677777 0.650997 0.290770
v 0.696570 0.663575 0.057010
v 0.620215 0.968790 0.027763
v 0.615181 0.968051 0.262349
v 0.464635 1.127107 -0.019446
v 0.472914 1.149200 0.231545
v 0.276321 1.219034 -0.043784
v 0.302761 1.254981 0.195593
v 0.236388 1.201849 0.417459
v 0.097372 1.005381 0.602707
v 0.373481 0.951921 -0.314772
v 0.288666 0.827978 -0.625449
v 0.520176 0.826816 -0.295284
v 0.427248 0.700657 -0.599036
v -0.900403 -0.532035 0.030743
v -1.053138 -0.366649 -0.103139
v -1.056787 -0.309528 0.285281
v -1.179407 -0.080623 0.117653
v -1.073958 -0.044253 0.536665
v -1.154923 0.243917 0.346531
v -0.841629 0.208819 0.716290
v -0.633452 -0.111060 0.758647
v -0.424353 -0.045767 0.883609
v -0.766218 -0.279782 0.601751
v -0.757668 -0.466563 0.404934
v -0.269129 -0.331374 0.962821
v -0.073267 -0.300311 0.932992
v -0.219575 -0.040387 0.890177
v -0.248136 -0.791914 0.672582
v -0.097832 -0.782855 0.458183
v 0.073311 -0.684599 0.529796
v -0.069640 -0.095291 0.863449
v -0.109225 0.155993 0.859546
vn 0.2153 0.3734 0.9023
vn -0.3780 0.6183 0.6890
vn -0.3557 0.1678 0.9194
vn 0.0527 0.1220 0.9911
vn 0.1070 0.3572 0.9278
vn -0.2776 0.5771 0.7680
vn 0.2400 -0.5006 0.8317
vn 0.0641 -0.2461 0.9671
vn -0.3421 -0.4143 0.8434
vn -0.0352 -0.6955 0.7176
vn 0.6684 -0.4167 0.6160
vn 0.5603 -0.0417 0.8272
vn 0.3882 -0.8188 0.4229
vn -0.5607 -0.4924 0.6657
vn -0.5395 -0.1618 0.8263
vn -0.7088 -0.3869 0.5898
vn -0.6673 -0.6840 0.2946
vn -0.3911 -0.7783 0.4912
vn 0.2319 0.1091 0.9666
vn 0.3810 0.1109 0.9179
vn 0.5298 -0.0168 0.8479
vn 0.3261 -0.2096 0.9218
vn 0.5504 -0.1459 0.8220
vn 0.4567 0.1589 0.8753
vn -0.4411 0.8166 0.3724
vn -0.5623 0.6977 0.4439
vn -0.6576 0.7463 0.1031
vn -0.5923 0.7890 0.1631
vn -0.6196 0.6030 0.5024
vn 0.4025 -0.4387 0.8034
vn 0.4397 -0.5005 0.7457
vn 0.7366 -0.3783 0.5606
vn 0.6152 -0.3399 0.7113
vn 0.6503 -0.3835 0.6558
vn 0.4989 0.2020 0.8428
vn 0.7029 0.3688 0.6081
vn 0.4723 0.6666 0.5766
vn 0.2646 0.3786 0.8869
vn 0.4759 0.1492 0.8668
vn 0.7801 0.1346 0.6110
vn 0.2177 0.1799 0.9593
vn -0.0909 -0.8155 0.5716
vn 0.1687 -0.6848 0.7089
vn 0.2607 -0.6038 0.7533
vn -0.0201 -0.8489 0.5281
vn -0.3203 -0.9430 0.0904
vn -0.1589 -0.9825 0.0970
vn 0.2476 -0.9588 0.1394
vn -0.3240 0.8699 0.3719
vn -0.5455 0.6905 0.4750
vn -0.2417 0.5930 0.7680
vn -0.0327 0.8890 0.4566
vn -0.3071 0.9515 0.0180
vn -0.6689 0.7390 0.0798
vn 0.0474 0.9988 0.0067
vn -0.3082 -0.9445 -0.1137
vn -0.2139 -0.9767 -0.0169
vn -0.3909 -0.9200 0.0271
vn -0.4155 -0.9080 0.0528
vn -0.3681 -0.9045 -0.2152
vn -0.1772 -0.9716 -0.1569
vn -0.3303 0.9075 -0.2595
vn -0.0272 0.9247 -0.3796
vn -0.5281 0.8053 -0.2694
vn -0.2038 0.8267 -0.5244
vn 0.9977 0.0457 0.0504
vn 0.9861 0.0175 0.1654
vn 0.9991 -0.0046 0.0424
vn 0.9940 0.0543 -0.0949
vn -0.5898 0.8001 -0.1094
vn -0.5946 0.7756 -0.2118
vn -0.4279 0.7491 -0.5057
vn -0.7015 0.5983 -0.3872
vn -0.8654 0.4937 -0.0853
vn 0.7528 0.1571 -0.6392
vn 0.7064 -0.0149 -0.7076
vn 0.9064 0.0848 -0.4138
vn 0.9318 -0.0063 -0.3630
vn 0.9406 -0.1780 -0.2889
vn 0.8952 -0.1549 -0.4177
vn 0.3024 0.3793 -0.8744
vn 0.2876 -0.0675 -0.9553
vn -0.7725 -0.1011 -0.6269
vn -0.8469 -0.3620 -0.3895
vn -0.9516 -0.0957 -0.2919
vn -0.8020 0.0991 -0.5890
vn -0.8008 0.1007 -0.5904
vn -0.9082 0.1081 -0.4043
vn -0.4614 0.1026 -0.8812
vn -0.4880 0.0598 -0.8708
vn -0.7191 0.2730 -0.6390
vn 0.1266 0.8114 -0.5706
vn -0.0529 0.8071 -0.5880
vn -0.1273 0.5977 -0.7915
vn -0.4244 0.5075 -0.7499
vn -0.3480 -0.8211 -0.4524
vn -0.6775 -0.7108 -0.1888
vn -0.4000 -0.5942 -0.6978
vn -0.0309 -0.8935 -0.4480
vn -0.3185 -0.9458 -0.0638
vn 0.0009 -0.6683 -0.7438
vn 0.8098 -0.4806 -0.3363
vn 0.5640 -0.6756 -0.4749
vn 0.4068 -0.4050 -0.8188
vn 0.7671 -0.1649 -0.6200
vn -0.1252 -0.8013 -0.5850
vn -0.0668 -0.9342 -0.3504
vn -0.4587 -0.8379 -0.2959
vn -0.4459 -0.6348 -0.6310
vn -0.1687 -0.3296 -0.9289
vn 0.1060 -0.6326 -0.7672
vn 0.2942 -0.8464 -0.4439
vn 0.1432 -0.5149 -0.8452
vn 0.2757 -0.1762 -0.9449
vn 0.1653 -0.2772 -0.9465
vn 0.0979 -0.4868 -0.8680
vn 0.2565 0.5091 -0.8215
vn 0.2939 0.2997 -0.9076
vn 0.2329 0.5523 -0.8004
vn -0.1729 -0.0852 -0.9812
vn -0.1146 -0.3300 -0.9370
vn -0.4618 -0.2377 -0.8545
vn -0.1308 -0.3116 -0.9411
vn -0.0889 -0.1046 -0.9905
vn 0.2233 -0.0837 -0.9711
vn 0.1097 0.1259 -0.9859
vn -0.2293 -0.6806 -0.6959
vn 0.1367 0.1905 -0.9721
vn 0.3190 0.5146 -0.7958
vn 0.6773 0.2004 -0.7079
vn 0.3409 -0.1370 -0.9301
vn -0.1363 0.1248 -0.9828
vn -0.0336 -0.2662 -0.9633
vn -0.1115 -0.1698 -0.9791
vn -0.3251 0.1210 -0.9379
vn 0.3826 -0.3924 -0.8364
vn 0.7750 -0.0526 -0.6297
vn 0.7295 -0.0787 -0.6794
vn 0.3345 -0.3675 -0.8677
vn 0.8940 0.1490 -0.4226
vn 0.8976 0.1295 -0.4213
vn 0.9252 0.1712 -0.3387
vn 0.9552 0.1385 -0.2614
vn 0.9797 0.1174 -0.1624
vn 0.9950 0.0865 -0.0504
vn 0.9968 0.0794 0.0052
vn 0.9616 0.1048 0.2536
vn 0.9871 0.0457 0.1534
vn 0.8083 0.1715 0.5632
vn 0.8890 -0.0167 0.4575
vn 0.9027 -0.1390 0.4071
vn 0.9378 -0.1947 0.2875
vn 0.7866 -0.6175 0.0008
vn 0.9001 -0.4136 -0.1371
vn 0.6486 -0.6937 -0.3131
vn 0.8025 -0.4848 -0.3477
vn 0.5846 -0.8019 0.1232
vn 0.4219 -0.8610 -0.2841
vn 0.0749 -0.9699 -0.2315
vn -0.3152 -0.9267 -0.2046
vn -0.5223 -0.7786 -0.3478
vn -0.1715 -0.8782 -0.4465
vn -0.5721 -0.5746 -0.5852
vn -0.3529 -0.1899 -0.9162
vn -0.0125 0.2553 -0.9668
vn 0.1673 -0.0051 -0.9859
vn 0.5475 0.2772 -0.7895
vn 0.9518 0.1263 0.2794
vn 0.9840 0.1395 -0.1107
vn 0.8624 0.4638 -0.2030
vn 0.8720 0.4319 0.2303
vn 0.5856 0.7406 -0.3294
vn 0.6297 0.7636 0.1426
vn 0.2897 0.8688 -0.4016
vn 0.3485 0.9352 0.0622
vn 0.2050 0.8137 0.5439
vn 0.0246 0.4825 0.8755
vn 0.4749 0.7133 -0.5154
vn 0.3862 0.7303 -0.5634
vn 0.7895 0.4357 -0.4322
vn 0.7639 0.4120 -0.4966
vn -0.6068 -0.7773 0.1661
vn -0.8915 -0.4503 -0.0491
vn -0.7672 -0.5546 0.3220
vn -0.9872 -0.1582 -0.0175
vn -0.7656 -0.2004 0.6112
vn -0.9289 0.2473 0.2754
vn -0.5916 0.0926 0.8009
vn -0.5246 -0.1724 0.8337
vn -0.2876 -0.0182 0.9575
vn -0.6295 -0.4028 0.6644
vn -0.6432 -0.6696 0.3714
vn -0.1473 0.0255 0.9887
vn 0.3404 0.1680 0.9251
vn 0.1138 0.0928 0.9891
vn -0.0397 -0.9713 0.2347
vn 0.1218 -0.9710 0.2055
vn 0.5204 -0.7429 0.4210
vn 0.4253 0.1599 0.8908
vn 0.4055 0.0376 0.9133
usemtl Default_OBJ.003
s 1
f 1//1 2//2 3//3 4//4
f 1//1 5//5 6//6 2//2
f 7//7 8//8 9//9 10//10
f 7//7 11//11 12//12 8//8
f 7//7 10//10 13//13 11//11
f 14//14 9//9 15//15 16//16
f 14//14 16//16 17//17 18//18
f 14//14 18//18 10//10 9//9
f 19//19 20//20 21//21 22//22
f 19//19 22//22 23//23 24//24
f 25//25 26//26 27//27 28//28
f 2//2 6//6 26//26 25//25
f 25//25 28//28 29//29 2//2
f 30//30 31//31 32//32 33//33
f 30//30 22//22 21//21 34//34
f 30//30 33//33 23//23 22//22
f 35//35 36//36 37//37 38//38
f 35//35 39//39 40//40 36//36
f 35//35 38//38 41//41 39//39
f 42//42 43//43 44//44 45//45
f 42//42 45//45 46//46 47//47
f 42//42 47//47 48//48 43//43
f 49//49 50//50 51//51 52//52
f 49//49 53//53 54//54 50//50
f 49//49 52//52 55//55 53//53
f 56//56 57//57 58//58 59//59
f 60//60 46//46 57//57 56//56
f 56//56 59//59 61//61 60//60
f 62//62 53//53 55//55 63//63
f 62//62 64//64 54//54 53//53
f 62//62 63//63 65//65 64//64
f 66//66 67//67 68//68 69//69
f 70//70 71//71 72//72 73//73
f 70//70 28//28 27//27 71//71
f 70//70 73//73 74//74 28//28
f 75//75 76//76 77//77 78//78
f 75//75 78//78 79//79 80//80
f 75//75 81//81 82//82 76//76
f 83//83 84//84 85//85 86//86
f 87//87 86//86 85//85 88//88
f 89//89 90//90 86//86 87//87
f 87//87 88//88 91//91 89//89
f 72//72 71//71 64//64 65//65
f 72//72 65//65 92//92 93//93
f 72//72 93//93 94//94 95//95
f 72//72 95//95 91//91 73//73
f 96//96 97//97 84//84 98//98
f 96//96 99//99 100//100 97//97
f 96//96 98//98 101//101 99//99
f 102//102 103//103 104//104 105//105
f 106//106 107//107 108//108 109//109
f 106//106 109//109 110//110 111//111
f 106//106 111//111 112//112 107//107
f 113//113 114//114 115//115 116//116
f 117//117 118//118 81//81 119//119
f 120//120 121//121 122//122 90//90
f 123//123 121//121 120//120 124//124
f 123//123 124//124 125//125 126//126
f 123//123 127//127 101//101 121//121
f 128//128 129//129 130//130 131//131
f 128//128 132//132 94//94 129//129
f 128//128 131//131 133//133 132//132
f 133//133 116//116 115//115 134//134
f 133//133 134//134 135//135 132//132
f 133//133 131//131 136//136 116//116
f 136//136 131//131 130//130 137//137
f 136//136 137//137 138//138 139//139
f 136//136 139//139 113//113 116//116
f 139//139 138//138 76//76 82//82
f 139//139 82//82 114//114 113//113
f 138//138 137//137 140//140 141//141
f 138//138 141//141 77//77 76//76
f 141//141 140//140 142//142 143//143
f 141//141 143//143 144//144 77//77
f 144//144 143//143 145//145 146//146
f 144//144 146//146 66//66 69//69
f 144//144 69//69 78//78 77//77
f 146//146 145//145 147//147 148//148
f 146//146 148//148 67//67 66//66
f 148//148 147//147 149//149 150//150
f 148//148 150//150 151//151 67//67
f 151//151 150//150 23//23 33//33
f 151//151 33//33 32//32 152//152
f 151//151 152//152 68//68 67//67
f 152//152 32//32 153//153 154//154
f 152//152 154//154 79//79 68//68
f 154//154 153//153 155//155 156//156
f 154//154 156//156 80//80 79//79
f 156//156 155//155 103//103 102//102
f 156//156 102//102 105//105 80//80
f 155//155 153//153 157//157 158//158
f 155//155 158//158 112//112 103//103
f 158//158 157//157 48//48 159//159
f 158//158 159//159 107//107 112//112
f 159//159 48//48 47//47 160//160
f 159//159 160//160 108//108 107//107
f 160//160 47//47 46//46 60//60
f 160//160 60//60 161//161 108//108
f 161//161 60//60 61//61 162//162
f 161//161 162//162 127//127 163//163
f 161//161 163//163 109//109 108//108
f 163//163 127//127 123//123 164//164
f 163//163 164//164 110//110 109//109
f 164//164 123//123 126//126 165//165
f 164//164 165//165 166//166 110//110
f 166//166 104//104 111//111 110//110
f 166//166 165//165 119//119 167//167
f 166//166 167//167 105//105 104//104
f 167//167 119//119 81//81 75//75
f 167//167 75//75 80//80 105//105
f 165//165 126//126 117//117 119//119
f 162//162 61//61 100//100 99//99
f 162//162 99//99 101//101 127//127
f 157//157 153//153 32//32 31//31
f 157//157 31//31 43//43 48//48
f 150//150 149//149 24//24 23//23
f 149//149 147//147 168//168 40//40
f 149//149 40//40 39//39 24//24
f 168//168 169//169 170//170 171//171
f 168//168 171//171 36//36 40//40
f 168//168 147//147 145//145 169//169
f 171//171 170//170 172//172 173//173
f 171//171 173//173 37//37 36//36
f 173//173 172//172 174//174 175//175
f 173//173 175//175 176//176 37//37
f 176//176 175//175 55//55 52//52
f 176//176 52//52 51//51 177//177
f 176//176 177//177 38//38 37//37
f 177//177 5//5 41//41 38//38
f 177//177 51//51 6//6 5//5
f 175//175 174//174 63//63 55//55
f 174//174 92//92 65//65 63//63
f 174//174 172//172 178//178 92//92
f 178//178 179//179 93//93 92//92
f 178//178 172//172 170//170 180//180
f 178//178 180//180 181//181 179//179
f 181//181 130//130 129//129 179//179
f 181//181 180//180 142//142 140//140
f 181//181 140//140 137//137 130//130
f 180//180 170//170 169//169 142//142
f 179//179 129//129 94//94 93//93
f 169//169 145//145 143//143 142//142
f 135//135 134//134 124//124 89//89
f 135//135 89//89 91//91 95//95
f 135//135 95//95 94//94 132//132
f 134//134 115//115 125//125 124//124
f 126//126 125//125 118//118 117//117
f 125//125 115//115 114//114 118//118
f 124//124 120//120 90//90 89//89
f 122//122 121//121 101//101 98//98
f 122//122 98//98 84//84 83//83
f 122//122 83//83 86//86 90//90
f 118//118 114//114 82//82 81//81
f 112//112 111//111 104//104 103//103
f 100//100 61//61 59//59 182//182
f 100//100 182//182 183//183 97//97
f 183//183 182//182 184//184 185//185
f 183//183 185//185 88//88 85//85
f 183//183 85//85 84//84 97//97
f 185//185 184//184 186//186 187//187
f 185//185 187//187 74//74 88//88
f 187//187 186//186 188//188 29//29
f 187//187 29//29 28//28 74//74
f 188//188 189//189 190//190 3//3
f 188//188 3//3 2//2 29//29
f 188//188 186//186 191//191 189//189
f 191//191 16//16 15//15 189//189
f 191//191 186//186 184//184 192//192
f 191//191 192//192 17//17 16//16
f 192//192 184//184 182//182 59//59
f 192//192 59//59 58//58 17//17
f 190//190 193//193 194//194 195//195
f 190//190 195//195 4//4 3//3
f 190//190 189//189 15//15 193//193
f 193//193 8//8 12//12 194//194
f 193//193 15//15 9//9 8//8
f 91//91 88//88 74//74 73//73
f 79//79 78//78 69//69 68//68
f 71//71 27//27 54//54 64//64
f 58//58 196//196 18//18 17//17
f 58//58 57//57 197//197 196//196
f 197//197 45//45 44//44 198//198
f 197//197 198//198 13//13 196//196
f 197//197 57//57 46//46 45//45
f 198//198 44//44 30//30 34//34
f 198//198 34//34 11//11 13//13
f 196//196 13//13 10//10 18//18
f 54//54 27//27 26//26 50//50
f 51//51 50//50 26//26 6//6
f 44//44 43//43 31//31 30//30
f 34//34 21//21 12//12 11//11
f 12//12 21//21 199//199 194//194
f 200//200 199//199 21//21 20//20
f 1//1 4//4 200//200 20//20
f 19//19 24//24 39//39 41//41
f 4//4 195//195 199//199 200//200
f 195//195 194//194 199//199
f 20//20 5//5 1//1
f 20//20 19//19 41//41 5//5
