# Blender v2.80 (sub 75) OBJ File: 'plams.blend'
# www.blender.org
mtllib smoke1.mtl
o smoke2
v -0.491426 -0.388165 0.587586
v -0.431935 -0.307044 0.678823
v -0.518973 -0.194337 0.492261
v -0.541908 -0.353935 0.447717
v -0.484615 -0.506848 0.423803
v -0.398084 -0.495042 0.645389
v -0.330046 -0.418811 0.755126
v 0.669016 0.064379 0.334070
v 0.709009 0.122218 0.289934
v 0.634533 0.218936 0.302976
v 0.601279 0.138481 0.358246
v 0.663053 -0.051932 0.330532
v 0.721328 -0.060795 0.260564
v 0.592927 -0.019147 0.372163
v 0.326383 -0.510845 -0.389503
v 0.361550 -0.415808 -0.446006
v 0.477482 -0.351811 -0.383954
v 0.439719 -0.473766 -0.300545
v 0.188665 -0.587268 -0.367552
v 0.147245 -0.510204 -0.449965
v 0.237346 -0.637186 -0.241906
v -0.142160 -0.146528 0.766012
v -0.056152 -0.193589 0.771979
v -0.010702 -0.066397 0.657623
v -0.166928 -0.046779 0.674235
v -0.213597 -0.224612 0.803783
v -0.102041 -0.309236 0.820138
v -0.287465 -0.109289 0.699294
v -0.038301 0.753682 -0.346917
v 0.033897 0.736154 -0.305228
v 0.065404 0.701839 -0.383935
v -0.042261 0.733981 -0.418951
v -0.114657 0.751857 -0.316233
v -0.044144 0.745862 -0.227862
v -0.150198 0.732125 -0.399708
v -0.065503 0.597999 -0.567836
v -0.141245 0.583699 -0.572498
v -0.163598 0.651569 -0.525270
v -0.055716 0.663723 -0.520843
v -0.005026 0.542887 -0.572429
v -0.088085 0.490950 -0.597916
v 0.046900 0.600170 -0.522053
v -0.242154 0.231115 -0.502840
v -0.261827 0.103809 -0.446850
v -0.465655 0.145805 -0.392795
v -0.315970 0.313207 -0.503701
v -0.123106 0.305250 -0.558558
v -0.072477 0.121639 -0.495514
v -0.192053 0.434395 -0.584044
v 0.745343 0.113978 0.067965
v 0.752607 0.138161 0.153963
v 0.758588 -0.049411 0.093342
v 0.731828 0.003743 0.022129
v 0.681072 0.087952 -0.029581
v 0.695275 0.207911 0.058712
v 0.689689 0.246946 0.142062
v 0.051659 -0.249704 0.730390
v 0.035994 -0.369721 0.748345
v 0.209700 -0.389306 0.585333
v 0.133773 -0.199707 0.627048
v 0.632400 -0.376464 0.005677
v 0.514568 -0.446181 -0.182791
v 0.559312 -0.294870 -0.273520
v 0.643637 -0.193569 -0.124026
v 0.383505 -0.682621 0.073336
v 0.296608 -0.669840 -0.072298
v -0.416876 -0.640183 -0.268096
v -0.431419 -0.707200 -0.168888
v -0.564485 -0.578332 -0.140849
v -0.487471 -0.528728 -0.274670
v -0.351762 -0.492869 -0.371267
v -0.288271 -0.632078 -0.331787
v -0.267659 -0.737612 -0.216515
v -0.532395 0.333523 0.317601
v -0.456135 0.430564 0.218636
v -0.555833 0.485024 0.100877
v -0.710674 0.322357 0.229532
v 0.479750 0.046427 0.401964
v 0.481335 0.169155 0.377718
v 0.275395 0.175187 0.393877
v 0.387888 -0.038884 0.417291
v 0.502657 -0.205164 0.375155
v -0.572750 -0.320549 0.339802
v -0.624567 -0.085450 0.298218
v -0.569648 -0.449875 0.229948
v -0.651940 -0.222894 0.180295
v -0.687975 -0.298541 -0.009768
v -0.586592 -0.573021 0.003071
v -0.451055 -0.738742 -0.014973
v -0.408963 -0.672241 0.184643
v -0.359241 -0.614176 0.417188
v -0.301916 -0.579084 0.631877
v -0.243450 -0.754107 0.156913
v -0.189159 -0.690146 0.396500
v -0.133525 -0.648721 0.569972
v -0.066034 -0.583015 0.668815
v -0.225724 -0.512090 0.750245
v 0.068595 -0.764802 0.249361
v 0.130614 -0.722334 0.397697
v 0.176329 -0.649538 0.486800
v 0.207868 -0.538928 0.549040
v -0.007106 -0.491060 0.725282
v 0.431743 -0.670874 0.205490
v 0.448277 -0.607822 0.301881
v 0.434271 -0.507560 0.381489
v 0.372982 -0.341850 0.447733
v 0.639245 -0.341202 0.212956
v 0.583873 -0.290839 0.298496
v 0.659038 -0.366268 0.121733
v 0.754813 -0.059046 0.184732
v 0.739922 0.134173 0.219819
v 0.667868 0.250555 0.224177
v 0.542846 0.332663 0.120188
v 0.511712 0.324208 0.226626
v 0.490245 0.269573 0.314261
v 0.299519 0.380476 0.216807
v 0.257067 0.305704 0.316765
v 0.099764 0.494611 0.138145
v -0.034142 0.356449 0.282862
v -0.323136 0.287366 0.348238
v -0.213198 0.112792 0.496333
v 0.053245 0.111920 0.479793
v 0.248577 -0.124834 0.491522
v -0.476473 0.209104 0.400647
v -0.356491 0.041683 0.529204
v -0.564121 0.105482 0.391233
v -0.450597 -0.062229 0.525022
v -0.375145 -0.199118 0.701256
v -0.279667 -0.322968 0.798605
v -0.158349 -0.423741 0.810556
v -0.772699 0.228799 0.169041
v -0.625670 0.482439 -0.009541
v -0.672183 0.442875 -0.119317
v -0.796947 0.124906 0.058039
v -0.683225 0.376748 -0.213748
v -0.796490 0.056481 -0.068637
v -0.655334 0.298977 -0.292828
v -0.755997 0.016771 -0.182092
v -0.666798 -0.323190 -0.139589
v -0.668105 -0.021241 -0.276935
v -0.588628 -0.316966 -0.246703
v -0.504543 -0.054938 -0.345804
v -0.437034 -0.299606 -0.343335
v -0.260408 -0.082083 -0.405127
v -0.202526 -0.296410 -0.419331
v -0.147095 -0.463538 -0.436797
v -0.103943 -0.582492 -0.395180
v 0.053490 -0.269524 -0.470323
v 0.110556 -0.415119 -0.483605
v 0.245047 -0.198086 -0.492527
v 0.317404 -0.325967 -0.487017
v 0.367173 -0.128962 -0.463983
v 0.444837 -0.255834 -0.441802
v 0.459144 -0.063694 -0.364496
v 0.535100 -0.178862 -0.333584
v 0.541387 0.046769 -0.211813
v 0.614990 -0.072986 -0.175344
v 0.588363 0.189442 -0.081978
v 0.399322 0.196530 -0.258644
v 0.419874 0.300573 -0.141904
v 0.403668 0.376868 -0.028327
v 0.575571 0.291286 0.014776
v 0.358454 0.403481 0.091643
v 0.256498 0.498514 -0.103143
v 0.192563 0.519313 0.015475
v 0.140962 0.657238 -0.209728
v 0.064872 0.682065 -0.109605
v -0.050356 0.661452 -0.002179
v -0.156076 0.711900 -0.129841
v -0.312208 0.589762 -0.002653
v -0.219016 0.538663 0.126491
v -0.227034 0.707066 -0.243020
v -0.383001 0.577222 -0.132695
v -0.268065 0.678280 -0.345073
v -0.422212 0.540595 -0.248814
v -0.281664 0.636347 -0.429917
v -0.434606 0.497152 -0.345281
v -0.274850 0.585197 -0.500856
v -0.422208 0.446206 -0.416412
v -0.244069 0.517024 -0.554101
v -0.382544 0.383253 -0.467786
v -0.584029 0.220125 -0.356505
v -0.164599 0.699252 -0.467138
v -0.045873 0.702633 -0.473487
v 0.068732 0.653272 -0.455565
v 0.173011 0.539816 -0.398913
v 0.133936 0.470184 -0.480884
v 0.177250 0.608721 -0.304953
v 0.279719 0.441434 -0.209665
v 0.266841 0.363631 -0.314829
v 0.333608 0.104410 -0.370339
v 0.216815 0.287655 -0.403232
v 0.242856 0.042191 -0.447045
v 0.139179 0.221511 -0.466131
v 0.064355 0.409256 -0.536762
v 0.047166 0.168286 -0.501304
v -0.023750 0.355850 -0.564510
v 0.140739 -0.011910 -0.478435
v -0.018499 -0.062974 -0.459451
v -0.060794 -0.681527 -0.296088
v -0.033871 -0.756605 -0.139554
v -0.268488 -0.786194 -0.054948
v -0.002829 -0.773653 0.060679
vn -0.8712 -0.2145 0.4415
vn -0.7650 0.0331 0.6431
vn -0.8642 0.0935 0.4943
vn -0.9193 -0.1946 0.3421
vn -0.7819 -0.5636 0.2665
vn -0.6713 -0.5334 0.5145
vn -0.5290 -0.2923 0.7967
vn 0.6049 0.0536 0.7945
vn 0.7696 0.2229 0.5983
vn 0.4865 0.5625 0.6685
vn 0.3714 0.2655 0.8897
vn 0.6195 -0.1660 0.7672
vn 0.8426 -0.1816 0.5069
vn 0.3612 -0.0600 0.9305
vn 0.4291 -0.6843 -0.5895
vn 0.4271 -0.4365 -0.7918
vn 0.7196 -0.3412 -0.6048
vn 0.6464 -0.6466 -0.4049
vn 0.2502 -0.7652 -0.5932
vn 0.0880 -0.5108 -0.8552
vn 0.3916 -0.8555 -0.3389
vn 0.0385 0.5612 0.8268
vn 0.3442 0.3990 0.8499
vn 0.3540 0.5949 0.7216
vn -0.0285 0.6864 0.7267
vn -0.1874 0.3297 0.9253
vn 0.2068 0.0314 0.9778
vn -0.3690 0.5579 0.7433
vn 0.1343 0.9819 -0.1332
vn 0.4156 0.9091 -0.0264
vn 0.5711 0.7572 -0.3168
vn 0.1563 0.9103 -0.3833
vn -0.1766 0.9841 -0.0190
vn 0.0967 0.9756 0.1968
vn -0.2899 0.9180 -0.2707
vn 0.1263 0.4387 -0.8897
vn -0.1798 0.3750 -0.9094
vn -0.2856 0.6356 -0.7172
vn 0.1556 0.6605 -0.7345
vn 0.3626 0.1975 -0.9108
vn 0.0535 0.0309 -0.9981
vn 0.5421 0.4102 -0.7334
vn -0.2601 -0.3337 -0.9061
vn -0.2510 -0.2720 -0.9290
vn -0.3661 -0.1812 -0.9127
vn -0.3941 -0.1928 -0.8986
vn -0.0859 -0.2927 -0.9523
vn -0.0922 -0.2651 -0.9598
vn -0.2630 -0.0836 -0.9611
vn 0.9048 0.2319 -0.3570
vn 0.9568 0.2908 0.0013
vn 0.9790 -0.1393 -0.1490
vn 0.9149 0.0139 -0.4033
vn 0.7678 0.2650 -0.5833
vn 0.7509 0.5401 -0.3800
vn 0.7090 0.7051 -0.0130
vn 0.5939 0.2366 0.7690
vn 0.5490 -0.1006 0.8297
vn 0.6546 -0.0496 0.7544
vn 0.6276 0.2999 0.7184
vn 0.8448 -0.4744 -0.2473
vn 0.7445 -0.5826 -0.3258
vn 0.8619 -0.2498 -0.4412
vn 0.8986 -0.1548 -0.4104
vn 0.5068 -0.8508 -0.1389
vn 0.4431 -0.8676 -0.2256
vn -0.4765 -0.5735 -0.6663
vn -0.5055 -0.7708 -0.3877
vn -0.8069 -0.4860 -0.3356
vn -0.6227 -0.3333 -0.7079
vn -0.3788 -0.2142 -0.9003
vn -0.2390 -0.5822 -0.7771
vn -0.1309 -0.8690 -0.4772
vn -0.2408 0.5938 0.7677
vn -0.1382 0.7548 0.6412
vn -0.4105 0.8448 0.3432
vn -0.6668 0.4970 0.5553
vn 0.1734 0.0746 0.9820
vn 0.1627 0.3417 0.9256
vn 0.1357 0.4248 0.8950
vn 0.2695 0.1024 0.9575
vn 0.4592 -0.1013 0.8825
vn -0.9243 -0.1950 0.3279
vn -0.8606 -0.0972 0.4999
vn -0.8597 -0.4217 0.2883
vn -0.9174 -0.2487 0.3105
vn -0.9478 -0.3126 0.0631
vn -0.8509 -0.5140 0.1089
vn -0.5441 -0.8363 0.0662
vn -0.5411 -0.7826 0.3078
vn -0.5197 -0.8080 0.2776
vn -0.3937 -0.7912 0.4680
vn -0.1890 -0.9590 0.2110
vn -0.2256 -0.9355 0.2718
vn -0.0989 -0.8970 0.4308
vn 0.1505 -0.7322 0.6642
vn -0.1843 -0.6151 0.7666
vn 0.0763 -0.9904 0.1149
vn 0.1758 -0.9225 0.3437
vn 0.3754 -0.7103 0.5954
vn 0.5499 -0.3933 0.7368
vn 0.3888 -0.4532 0.8021
vn 0.5864 -0.7980 0.1386
vn 0.6550 -0.5825 0.4813
vn 0.6436 -0.3046 0.7021
vn 0.5878 -0.0241 0.8086
vn 0.8148 -0.3825 0.4356
vn 0.6550 -0.2564 0.7108
vn 0.8857 -0.4615 0.0502
vn 0.9692 -0.1594 0.1876
vn 0.9137 0.2669 0.3062
vn 0.6187 0.7095 0.3374
vn 0.4331 0.9012 0.0126
vn 0.3089 0.8689 0.3866
vn 0.2090 0.6663 0.7157
vn 0.2154 0.8311 0.5126
vn 0.0948 0.6627 0.7428
vn 0.2182 0.7625 0.6090
vn 0.0494 0.6634 0.7466
vn -0.0021 0.6366 0.7712
vn -0.0295 0.6655 0.7458
vn 0.2012 0.5672 0.7985
vn 0.4932 0.2490 0.8335
vn -0.2562 0.4826 0.8375
vn -0.3177 0.5527 0.7704
vn -0.6259 0.1770 0.7595
vn -0.6702 0.3097 0.6745
vn -0.6239 0.3176 0.7140
vn -0.3915 0.0256 0.9198
vn 0.0286 -0.3289 0.9439
vn -0.9050 0.2022 0.3742
vn -0.6317 0.7741 0.0404
vn -0.7488 0.6409 -0.1688
vn -0.9854 0.0338 0.1669
vn -0.7991 0.4624 -0.3843
vn -0.9944 -0.0474 -0.0949
vn -0.7399 0.2344 -0.6306
vn -0.8833 -0.1069 -0.4564
vn -0.8803 -0.3167 -0.3532
vn -0.6280 -0.1572 -0.7621
vn -0.6572 -0.2331 -0.7168
vn -0.3671 -0.1501 -0.9180
vn -0.4067 -0.0961 -0.9085
vn -0.2436 -0.1164 -0.9628
vn -0.2478 -0.0060 -0.9688
vn -0.2075 -0.1820 -0.9611
vn -0.0816 -0.5548 -0.8279
vn -0.1455 0.0089 -0.9893
vn -0.0497 -0.1794 -0.9825
vn 0.0602 0.0604 -0.9963
vn 0.2168 -0.1334 -0.9670
vn 0.3977 0.2199 -0.8908
vn 0.5792 -0.0125 -0.8151
vn 0.6308 0.3349 -0.7000
vn 0.7907 0.1061 -0.6029
vn 0.6832 0.3646 -0.6326
vn 0.8164 0.1546 -0.5564
vn 0.6491 0.4785 -0.5914
vn 0.6631 0.4169 -0.6216
vn 0.6619 0.5709 -0.4857
vn 0.5814 0.7895 -0.1963
vn 0.5647 0.7392 -0.3671
vn 0.4144 0.8942 0.1694
vn 0.7157 0.6978 0.0286
vn 0.5019 0.7957 0.3390
vn 0.6627 0.7434 0.0900
vn 0.4007 0.8493 0.3436
vn 0.0839 0.8363 0.5419
vn -0.2193 0.9213 0.3210
vn -0.3047 0.8806 0.3628
vn -0.0735 0.7630 0.6422
vn -0.4584 0.8844 0.0876
vn -0.4794 0.8755 0.0601
vn -0.5896 0.7952 -0.1413
vn -0.5901 0.7854 -0.1866
vn -0.6357 0.6695 -0.3842
vn -0.6597 0.6178 -0.4278
vn -0.5993 0.4671 -0.6501
vn -0.6523 0.3624 -0.6657
vn -0.4725 0.2017 -0.8579
vn -0.5527 0.0639 -0.8309
vn -0.5582 -0.0021 -0.8296
vn -0.3119 0.8108 -0.4953
vn 0.1765 0.8009 -0.5721
vn 0.6002 0.5907 -0.5392
vn 0.8142 0.3459 -0.4663
vn 0.7116 0.1447 -0.6876
vn 0.8060 0.5537 -0.2091
vn 0.8130 0.5085 -0.2835
vn 0.7914 0.3240 -0.5183
vn 0.5834 0.3370 -0.7389
vn 0.6787 0.1666 -0.7152
vn 0.3730 0.2126 -0.9031
vn 0.4770 0.0191 -0.8787
vn 0.5044 -0.0389 -0.8626
vn 0.1889 -0.1482 -0.9707
vn 0.2180 -0.1871 -0.9578
vn 0.0754 0.0238 -0.9969
vn -0.1435 -0.0929 -0.9853
vn 0.0702 -0.8228 -0.5640
vn 0.1487 -0.9570 -0.2492
vn -0.1311 -0.9886 -0.0731
vn 0.1084 -0.9940 -0.0152
usemtl Default_OBJ.004
s 1
f 1//1 2//2 3//3 4//4
f 1//1 4//4 5//5 6//6
f 1//1 6//6 7//7 2//2
f 8//8 9//9 10//10 11//11
f 8//8 12//12 13//13 9//9
f 8//8 11//11 14//14 12//12
f 15//15 16//16 17//17 18//18
f 15//15 19//19 20//20 16//16
f 15//15 18//18 21//21 19//19
f 22//22 23//23 24//24 25//25
f 22//22 26//26 27//27 23//23
f 22//22 25//25 28//28 26//26
f 29//29 30//30 31//31 32//32
f 29//29 33//33 34//34 30//30
f 29//29 32//32 35//35 33//33
f 36//36 37//37 38//38 39//39
f 36//36 40//40 41//41 37//37
f 36//36 39//39 42//42 40//40
f 43//43 44//44 45//45 46//46
f 43//43 47//47 48//48 44//44
f 43//43 46//46 49//49 47//47
f 50//50 51//51 52//52 53//53
f 50//50 53//53 54//54 55//55
f 50//50 55//55 56//56 51//51
f 57//57 58//58 59//59 60//60
f 57//57 60//60 24//24 23//23
f 57//57 23//23 27//27 58//58
f 61//61 62//62 63//63 64//64
f 61//61 65//65 66//66 62//62
f 61//61 64//64 53//53 52//52
f 67//67 68//68 69//69 70//70
f 67//67 70//70 71//71 72//72
f 67//67 72//72 73//73 68//68
f 74//74 75//75 76//76 77//77
f 78//78 79//79 80//80 81//81
f 78//78 14//14 11//11 79//79
f 78//78 81//81 82//82 14//14
f 83//83 4//4 3//3 84//84
f 85//85 5//5 4//4 83//83
f 83//83 84//84 86//86 85//85
f 85//85 86//86 87//87 88//88
f 85//85 88//88 89//89 90//90
f 85//85 90//90 91//91 5//5
f 91//91 92//92 6//6 5//5
f 91//91 90//90 93//93 94//94
f 91//91 94//94 95//95 92//92
f 95//95 96//96 97//97 92//92
f 95//95 94//94 98//98 99//99
f 95//95 99//99 100//100 96//96
f 100//100 101//101 102//102 96//96
f 100//100 99//99 103//103 104//104
f 100//100 104//104 105//105 101//101
f 105//105 106//106 59//59 101//101
f 105//105 104//104 107//107 108//108
f 105//105 108//108 82//82 106//106
f 108//108 107//107 13//13 12//12
f 108//108 12//12 14//14 82//82
f 107//107 104//104 103//103 109//109
f 107//107 109//109 110//110 13//13
f 110//110 109//109 61//61 52//52
f 110//110 52//52 51//51 111//111
f 110//110 111//111 9//9 13//13
f 111//111 51//51 56//56 112//112
f 111//111 112//112 10//10 9//9
f 112//112 56//56 113//113 114//114
f 112//112 114//114 115//115 10//10
f 115//115 114//114 116//116 117//117
f 115//115 117//117 80//80 79//79
f 115//115 79//79 11//11 10//10
f 117//117 116//116 118//118 119//119
f 119//119 120//120 121//121 122//122
f 117//117 119//119 122//122 80//80
f 122//122 121//121 25//25 24//24
f 122//122 24//24 60//60 123//123
f 122//122 123//123 81//81 80//80
f 123//123 60//60 59//59 106//106
f 123//123 106//106 82//82 81//81
f 121//121 120//120 124//124 125//125
f 121//121 125//125 28//28 25//25
f 125//125 124//124 126//126 127//127
f 125//125 127//127 128//128 28//28
f 128//128 129//129 26//26 28//28
f 128//128 127//127 3//3 2//2
f 128//128 2//2 7//7 129//129
f 129//129 7//7 97//97 130//130
f 129//129 130//130 27//27 26//26
f 130//130 97//97 96//96 102//102
f 130//130 102//102 58//58 27//27
f 127//127 126//126 84//84 3//3
f 126//126 124//124 74//74 77//77
f 126//126 77//77 131//131 84//84
f 131//131 77//77 76//76 132//132
f 131//131 132//132 133//133 134//134
f 131//131 134//134 86//86 84//84
f 134//134 133//133 135//135 136//136
f 134//134 136//136 87//87 86//86
f 136//136 135//135 137//137 138//138
f 136//136 138//138 139//139 87//87
f 139//139 69//69 88//88 87//87
f 139//139 138//138 140//140 141//141
f 139//139 141//141 70//70 69//69
f 141//141 140//140 142//142 143//143
f 141//141 143//143 71//71 70//70
f 143//143 142//142 144//144 145//145
f 143//143 145//145 146//146 71//71
f 146//146 147//147 72//72 71//71
f 146//146 145//145 148//148 149//149
f 146//146 149//149 20//20 147//147
f 149//149 148//148 150//150 151//151
f 149//149 151//151 16//16 20//20
f 151//151 150//150 152//152 153//153
f 151//151 153//153 17//17 16//16
f 153//153 152//152 154//154 155//155
f 153//153 155//155 63//63 17//17
f 155//155 154//154 156//156 157//157
f 155//155 157//157 64//64 63//63
f 157//157 156//156 158//158 54//54
f 157//157 54//54 53//53 64//64
f 158//158 156//156 159//159 160//160
f 158//158 160//160 161//161 162//162
f 158//158 162//162 55//55 54//54
f 162//162 161//161 163//163 113//113
f 162//162 113//113 56//56 55//55
f 163//163 161//161 164//164 165//165
f 163//163 165//165 118//118 116//116
f 163//163 116//116 114//114 113//113
f 165//165 164//164 166//166 167//167
f 165//165 167//167 168//168 118//118
f 168//168 167//167 34//34 169//169
f 168//168 169//169 170//170 171//171
f 168//168 171//171 119//119 118//118
f 171//171 75//75 120//120 119//119
f 171//171 170//170 76//76 75//75
f 170//170 169//169 172//172 173//173
f 170//170 173//173 132//132 76//76
f 173//173 172//172 174//174 175//175
f 173//173 175//175 133//133 132//132
f 175//175 174//174 176//176 177//177
f 175//175 177//177 135//135 133//133
f 177//177 176//176 178//178 179//179
f 177//177 179//179 137//137 135//135
f 179//179 178//178 180//180 181//181
f 179//179 181//181 182//182 137//137
f 182//182 140//140 138//138 137//137
f 182//182 181//181 46//46 45//45
f 182//182 45//45 142//142 140//140
f 181//181 180//180 49//49 46//46
f 180//180 178//178 38//38 37//37
f 180//180 37//37 41//41 49//49
f 178//178 176//176 183//183 38//38
f 183//183 176//176 174//174 35//35
f 183//183 35//35 32//32 184//184
f 183//183 184//184 39//39 38//38
f 184//184 185//185 42//42 39//39
f 184//184 32//32 31//31 185//185
f 185//185 186//186 187//187 42//42
f 185//185 31//31 188//188 186//186
f 188//188 189//189 190//190 186//186
f 188//188 31//31 30//30 166//166
f 188//188 166//166 164//164 189//189
f 190//190 159//159 191//191 192//192
f 190//190 192//192 187//187 186//186
f 190//190 189//189 160//160 159//159
f 192//192 191//191 193//193 194//194
f 192//192 194//194 195//195 187//187
f 195//195 194//194 196//196 197//197
f 195//195 197//197 41//41 40//40
f 195//195 40//40 42//42 187//187
f 197//197 196//196 48//48 47//47
f 197//197 47//47 49//49 41//41
f 196//196 198//198 199//199 48//48
f 196//196 194//194 193//193 198//198
f 199//199 148//148 145//145 144//144
f 199//199 144//144 44//44 48//48
f 199//199 198//198 150//150 148//148
f 198//198 193//193 152//152 150//150
f 193//193 191//191 154//154 152//152
f 191//191 159//159 156//156 154//154
f 189//189 164//164 161//161 160//160
f 174//174 172//172 33//33 35//35
f 172//172 169//169 34//34 33//33
f 167//167 166//166 30//30 34//34
f 147//147 200//200 73//73 72//72
f 147//147 20//20 19//19 200//200
f 200//200 201//201 202//202 73//73
f 200//200 19//19 21//21 201//201
f 202//202 93//93 90//90 89//89
f 202//202 89//89 68//68 73//73
f 202//202 201//201 203//203 93//93
f 203//203 98//98 94//94 93//93
f 203//203 201//201 21//21 66//66
f 203//203 66//66 65//65 98//98
f 144//144 142//142 45//45 44//44
f 124//124 120//120 75//75 74//74
f 109//109 103//103 65//65 61//61
f 103//103 99//99 98//98 65//65
f 102//102 101//101 59//59 58//58
f 97//97 7//7 6//6 92//92
f 89//89 88//88 69//69 68//68
f 66//66 21//21 18//18 62//62
f 63//63 62//62 18//18 17//17
