# Blender v2.80 (sub 75) OBJ File: 'plams.blend'
# www.blender.org
mtllib SWtrash1.mtl
o SWT
v 0.122038 0.656243 -0.134548
v 0.535216 0.202020 0.135677
v 0.098678 0.570651 -0.541461
v 0.303729 0.283741 0.377595
v -0.065013 -0.211217 0.562043
v 0.721854 -0.115935 0.179909
v -0.144737 0.460689 -0.636178
v -0.357978 -0.570793 -0.073659
v -0.499118 -0.410846 -0.099199
v 0.438087 -0.413254 -0.181737
v -0.091403 -0.624996 0.022400
v 0.391725 -0.320458 -0.378133
v -0.455963 0.313260 0.200366
v -0.366183 -0.230832 0.460160
v -0.217471 0.094247 0.458281
v -0.017291 0.735107 -0.030224
v -0.113435 0.667257 -0.494995
v -0.621531 0.394848 -0.035979
v 0.232828 -0.605511 0.300302
v -0.474553 -0.338539 0.300891
v -0.333648 -0.401794 0.409495
v 0.236310 0.518423 0.140611
v -0.560155 0.089049 -0.290964
v -0.535092 0.399950 -0.293802
v 0.352307 -0.136876 -0.507755
v 0.465639 0.070681 -0.351892
v 0.473464 -0.188061 -0.468384
v -0.252820 -0.246300 0.536080
v -0.137399 -0.355259 0.522664
v 0.738724 -0.289550 0.041783
v -0.634795 0.128666 -0.143999
v 0.767986 -0.124612 0.014650
vn 0.5965 0.7982 -0.0843
vn 0.7866 0.5966 0.1590
vn 0.5045 0.5748 -0.6442
vn 0.3675 0.4740 0.8001
vn 0.1359 -0.0286 0.9903
vn 0.8004 0.0624 0.5962
vn -0.2455 0.1610 -0.9559
vn -0.4368 -0.8387 -0.3253
vn -0.7687 -0.5057 -0.3915
vn 0.4155 -0.8327 -0.3658
vn -0.0593 -0.9919 -0.1121
vn 0.2287 -0.7263 -0.6482
vn -0.5487 0.4742 0.6885
vn -0.6746 -0.0247 0.7378
vn -0.2775 0.4084 0.8696
vn 0.0082 0.9589 0.2836
vn -0.1762 0.8629 -0.4736
vn -0.8489 0.4928 0.1911
vn 0.3105 -0.8346 0.4550
vn -0.8330 -0.3780 0.4040
vn -0.4671 -0.6616 0.5866
vn 0.5082 0.7611 0.4029
vn -0.7104 -0.1941 -0.6765
vn -0.7710 0.4245 -0.4746
vn 0.0660 -0.2767 -0.9587
vn 0.7922 0.4007 -0.4603
vn 0.5629 -0.2633 -0.7834
vn -0.3696 -0.0887 0.9249
vn -0.0583 -0.5191 0.8527
vn 0.8383 -0.5433 0.0441
vn -0.9893 -0.0661 -0.1303
vn 0.9731 0.1799 -0.1437
usemtl Default_OBJ.001
s 1
f 1//1 2//2 3//3
f 4//4 5//5 6//6
f 7//7 8//8 9//9
f 10//10 11//11 12//12
f 13//13 14//14 15//15
f 16//16 17//17 18//18
f 10//10 19//19 11//11
f 20//20 8//8 21//21
f 22//22 2//2 1//1
f 13//13 15//15 16//16
f 15//15 5//5 4//4
f 16//16 15//15 4//4
f 18//18 20//20 14//14
f 7//7 23//23 24//24
f 25//25 8//8 7//7
f 26//26 27//27 3//3
f 3//3 27//27 7//7
f 17//17 7//7 24//24
f 11//11 19//19 21//21
f 5//5 19//19 6//6
f 15//15 28//28 5//5
f 21//21 19//19 29//29
f 3//3 17//17 1//1
f 3//3 7//7 17//17
f 8//8 11//11 21//21
f 12//12 11//11 8//8
f 1//1 17//17 16//16
f 22//22 1//1 16//16
f 20//20 21//21 14//14
f 21//21 29//29 28//28
f 30//30 19//19 10//10
f 30//30 10//10 27//27
f 9//9 8//8 20//20
f 18//18 31//31 20//20
f 3//3 2//2 26//26
f 4//4 6//6 2//2
f 24//24 31//31 18//18
f 17//17 24//24 18//18
f 32//32 27//27 26//26
f 2//2 32//32 26//26
f 7//7 9//9 23//23
f 31//31 9//9 20//20
f 6//6 19//19 30//30
f 32//32 30//30 27//27
f 18//18 14//14 13//13
f 16//16 18//18 13//13
f 6//6 30//30 32//32
f 2//2 6//6 32//32
f 23//23 9//9 31//31
f 24//24 23//23 31//31
f 22//22 16//16 4//4
f 22//22 4//4 2//2
f 25//25 12//12 8//8
f 27//27 10//10 12//12
f 29//29 19//19 5//5
f 28//28 29//29 5//5
f 27//27 25//25 7//7
f 27//27 12//12 25//25
f 14//14 21//21 28//28
f 14//14 28//28 15//15
